# xmcd CD database file
#
# Track frame offsets:
#	150
#	21450
#	41250
#	59100
#	79387
#	102825
#	124762
#	138337
#	156750
#	177525
#	205395
#
# Disc length: 2966 seconds
#
# Revision: 0
# Processed by: cddbd v1.5.2PL0 Copyright (c) Steve Scherf et al.
# Submitted via: CDex 1.70beta2
#
DISCID=9f0b940b
DTITLE=Charlotte Glasson - Charlotte's World Wide Web
DYEAR=2009
DGENRE=Jazz
TTITLE0=Aphiwe
TTITLE1=When You're Feeling Low
TTITLE2=Lump of Pork
TTITLE3=Prince Among Men
TTITLE4=Dancehall Reunion
TTITLE5=People Watching People
TTITLE6=Charlotte's Web
TTITLE7=Rush Hour
TTITLE8=Half Moon
TTITLE9=Earlybird Tango
TTITLE10=Reelit In
EXTD=YEAR: 2009
EXTT0=
EXTT1=
EXTT2=
EXTT3=
EXTT4=
EXTT5=
EXTT6=
EXTT7=
EXTT8=
EXTT9=
EXTT10=
PLAYORDER=
